<mxfile host="65bd71144e">
    <diagram id="iErX6f6-IX-VkEz2Oq3R" name="第 1 页">
        <mxGraphModel dx="1002" dy="576" grid="0" gridSize="10" guides="1" tooltips="1" connect="1" arrows="1" fold="1" page="0" pageScale="1" pageWidth="827" pageHeight="1169" background="none" math="0" shadow="0">
            <root>
                <mxCell id="0"/>
                <mxCell id="1" parent="0"/>
                <mxCell id="2" value="" style="whiteSpace=wrap;html=1;aspect=fixed;fillColor=#60a917;fontColor=#ffffff;strokeColor=#2D7600;" vertex="1" parent="1">
                    <mxGeometry x="262" y="189" width="80" height="80" as="geometry"/>
                </mxCell>
                <mxCell id="3" value="" style="whiteSpace=wrap;html=1;aspect=fixed;fillColor=#1ba1e2;fontColor=#ffffff;strokeColor=#006EAF;" vertex="1" parent="1">
                    <mxGeometry x="342" y="189" width="80" height="80" as="geometry"/>
                </mxCell>
                <mxCell id="4" value="" style="whiteSpace=wrap;html=1;aspect=fixed;fillColor=#60a917;fontColor=#ffffff;strokeColor=#2D7600;" vertex="1" parent="1">
                    <mxGeometry x="422" y="189" width="80" height="80" as="geometry"/>
                </mxCell>
                <mxCell id="5" value="" style="whiteSpace=wrap;html=1;aspect=fixed;fillColor=#1ba1e2;fontColor=#ffffff;strokeColor=#006EAF;" vertex="1" parent="1">
                    <mxGeometry x="502" y="189" width="80" height="80" as="geometry"/>
                </mxCell>
                <mxCell id="6" value="&lt;font color=&quot;#ff9933&quot; style=&quot;font-size: 18px;&quot;&gt;wait&lt;/font&gt;" style="text;html=1;align=center;verticalAlign=middle;resizable=0;points=[];autosize=1;strokeColor=none;fillColor=none;" vertex="1" parent="1">
                    <mxGeometry x="277" y="149" width="50" height="34" as="geometry"/>
                </mxCell>
                <mxCell id="7" value="perform" style="text;html=1;align=center;verticalAlign=middle;resizable=0;points=[];autosize=1;strokeColor=none;fillColor=none;fontSize=18;fontColor=#FF9933;" vertex="1" parent="1">
                    <mxGeometry x="347" y="149" width="80" height="34" as="geometry"/>
                </mxCell>
                <mxCell id="8" value="T1" style="text;html=1;align=center;verticalAlign=middle;resizable=0;points=[];autosize=1;strokeColor=none;fillColor=none;fontSize=18;fontColor=#FF9933;" vertex="1" parent="1">
                    <mxGeometry x="282.5" y="275" width="39" height="34" as="geometry"/>
                </mxCell>
                <mxCell id="9" value="T2" style="text;html=1;align=center;verticalAlign=middle;resizable=0;points=[];autosize=1;strokeColor=none;fillColor=none;fontSize=18;fontColor=#FF9933;" vertex="1" parent="1">
                    <mxGeometry x="362.5" y="275" width="39" height="34" as="geometry"/>
                </mxCell>
                <mxCell id="10" value="T3" style="text;html=1;align=center;verticalAlign=middle;resizable=0;points=[];autosize=1;strokeColor=none;fillColor=none;fontSize=18;fontColor=#FF9933;" vertex="1" parent="1">
                    <mxGeometry x="442.5" y="275" width="39" height="34" as="geometry"/>
                </mxCell>
                <mxCell id="11" value="T4" style="text;html=1;align=center;verticalAlign=middle;resizable=0;points=[];autosize=1;strokeColor=none;fillColor=none;fontSize=18;fontColor=#FF9933;" vertex="1" parent="1">
                    <mxGeometry x="522.5" y="275" width="39" height="34" as="geometry"/>
                </mxCell>
                <mxCell id="12" value="Turnaround time:T1+T2+T3+T4" style="text;html=1;align=center;verticalAlign=middle;resizable=0;points=[];autosize=1;strokeColor=none;fillColor=none;fontSize=18;fontColor=#FF9933;" vertex="1" parent="1">
                    <mxGeometry x="634" y="161" width="270" height="34" as="geometry"/>
                </mxCell>
                <mxCell id="13" value="Waiting time:T1+T3" style="text;html=1;align=center;verticalAlign=middle;resizable=0;points=[];autosize=1;strokeColor=none;fillColor=none;fontSize=18;fontColor=#FF9933;" vertex="1" parent="1">
                    <mxGeometry x="682" y="212" width="174" height="34" as="geometry"/>
                </mxCell>
                <mxCell id="14" value="Response time:T1" style="text;html=1;align=center;verticalAlign=middle;resizable=0;points=[];autosize=1;strokeColor=none;fillColor=none;fontSize=18;fontColor=#FF9933;" vertex="1" parent="1">
                    <mxGeometry x="685" y="263" width="164" height="34" as="geometry"/>
                </mxCell>
            </root>
        </mxGraphModel>
    </diagram>
</mxfile>